<?xml version="1.0" encoding="UTF-8"?>
<svg xmlns="http://www.w3.org/2000/svg" width="1920" height="1080" viewBox="0 0 1920 1080">
  <defs>
    
      <radialGradient id="bg" cx="50%" cy="50%" r="80%">
        <stop offset="0%" stop-color="#0f0808"/>
        <stop offset="100%" stop-color="#050202"/>
      </radialGradient>
      <radialGradient id="neb" cx="50%" cy="50%" r="55%">
        <stop offset="0%" stop-color="#2a0808" stop-opacity="0.7"/>
        <stop offset="100%" stop-color="#2a0808" stop-opacity="0"/>
      </radialGradient>
  </defs>
  <rect width="1920" height="1080" fill="url(#bg)"/>
  <circle cx="648" cy="311" r="0.8" fill="white" opacity="0.4"/>
<circle cx="956" cy="955" r="0.4" fill="white" opacity="0.4"/>
<circle cx="1584" cy="831" r="1.4" fill="white" opacity="0.7"/>
<circle cx="356" cy="235" r="1.2" fill="white" opacity="0.6"/>
<circle cx="936" cy="969" r="0.6" fill="white" opacity="0.9"/>
<circle cx="244" cy="757" r="0.6" fill="white" opacity="0.4"/>
<circle cx="1408" cy="775" r="1.4" fill="white" opacity="0.4"/>
<circle cx="1612" cy="187" r="1.4" fill="white" opacity="0.3"/>
<circle cx="984" cy="759" r="1.8" fill="white" opacity="0.4"/>
<circle cx="932" cy="1037" r="0.8" fill="white" opacity="0.7"/>
<circle cx="1200" cy="241" r="1.6" fill="white" opacity="0.6"/>
<circle cx="1020" cy="315" r="2.0" fill="white" opacity="0.9"/>
<circle cx="760" cy="967" r="1.0" fill="white" opacity="0.3"/>
<circle cx="468" cy="869" r="1.6" fill="white" opacity="0.8"/>
<circle cx="1248" cy="385" r="1.6" fill="white" opacity="0.3"/>
<circle cx="1324" cy="211" r="1.8" fill="white" opacity="0.3"/>
<circle cx="1592" cy="657" r="2.0" fill="white" opacity="0.9"/>
<circle cx="1916" cy="917" r="1.6" fill="white" opacity="0.8"/>
<circle cx="784" cy="513" r="0.6" fill="white" opacity="0.6"/>
<circle cx="1628" cy="979" r="0.8" fill="white" opacity="0.9"/>
<circle cx="1000" cy="137" r="1.8" fill="white" opacity="0.8"/>
<circle cx="1100" cy="837" r="1.8" fill="white" opacity="0.9"/>
<circle cx="704" cy="679" r="0.6" fill="white" opacity="0.5"/>
<circle cx="1652" cy="1021" r="1.2" fill="white" opacity="0.9"/>
<circle cx="1640" cy="97" r="1.8" fill="white" opacity="0.8"/>
<circle cx="412" cy="787" r="1.2" fill="white" opacity="0.6"/>
<circle cx="400" cy="399" r="1.0" fill="white" opacity="0.7"/>
<circle cx="700" cy="547" r="1.2" fill="white" opacity="0.6"/>
<circle cx="1224" cy="897" r="0.6" fill="white" opacity="0.3"/>
<circle cx="148" cy="35" r="2.0" fill="white" opacity="0.7"/>
<circle cx="544" cy="769" r="1.2" fill="white" opacity="0.5"/>
<circle cx="364" cy="765" r="1.6" fill="white" opacity="0.7"/>
<circle cx="1800" cy="511" r="1.8" fill="white" opacity="0.5"/>
<circle cx="572" cy="827" r="0.6" fill="white" opacity="0.9"/>
<circle cx="1744" cy="119" r="0.4" fill="white" opacity="0.8"/>
<circle cx="228" cy="1019" r="0.8" fill="white" opacity="0.6"/>
<circle cx="552" cy="609" r="1.2" fill="white" opacity="0.4"/>
<circle cx="780" cy="339" r="0.4" fill="white" opacity="0.8"/>
<circle cx="128" cy="575" r="1.2" fill="white" opacity="0.3"/>
<circle cx="692" cy="773" r="2.0" fill="white" opacity="0.6"/>
<circle cx="296" cy="49" r="0.8" fill="white" opacity="0.4"/>
<circle cx="36" cy="597" r="0.4" fill="white" opacity="0.3"/>
<circle cx="1232" cy="937" r="0.4" fill="white" opacity="0.5"/>
<circle cx="644" cy="717" r="1.4" fill="white" opacity="0.5"/>
<circle cx="504" cy="481" r="0.6" fill="white" opacity="0.4"/>
<circle cx="1836" cy="45" r="0.6" fill="white" opacity="0.6"/>
<circle cx="352" cy="471" r="1.8" fill="white" opacity="0.6"/>
<circle cx="44" cy="267" r="0.4" fill="white" opacity="0.8"/>
<circle cx="584" cy="647" r="0.6" fill="white" opacity="0.7"/>
<circle cx="516" cy="453" r="1.0" fill="white" opacity="0.6"/>
<circle cx="528" cy="287" r="2.0" fill="white" opacity="0.7"/>
<circle cx="1316" cy="843" r="0.8" fill="white" opacity="0.7"/>
<circle cx="360" cy="857" r="1.6" fill="white" opacity="0.4"/>
<circle cx="1204" cy="101" r="1.8" fill="white" opacity="0.5"/>
<circle cx="320" cy="711" r="1.2" fill="white" opacity="0.3"/>
<circle cx="1804" cy="715" r="1.4" fill="white" opacity="0.3"/>
<circle cx="920" cy="183" r="1.8" fill="white" opacity="0.5"/>
<circle cx="740" cy="1053" r="1.0" fill="white" opacity="0.6"/>
<circle cx="272" cy="231" r="1.0" fill="white" opacity="0.3"/>
<circle cx="708" cy="539" r="1.8" fill="white" opacity="0.3"/>
<circle cx="712" cy="905" r="2.0" fill="white" opacity="0.8"/>
<circle cx="1812" cy="163" r="1.8" fill="white" opacity="0.7"/>
<circle cx="416" cy="753" r="0.4" fill="white" opacity="0.4"/>
<circle cx="1132" cy="1067" r="1.0" fill="white" opacity="0.8"/>
<circle cx="8" cy="863" r="1.8" fill="white" opacity="0.9"/>
<circle cx="828" cy="747" r="1.4" fill="white" opacity="0.9"/>
<circle cx="1616" cy="751" r="0.6" fill="white" opacity="0.9"/>
<circle cx="28" cy="283" r="1.6" fill="white" opacity="0.4"/>
<circle cx="168" cy="607" r="0.8" fill="white" opacity="0.8"/>
<circle cx="268" cy="331" r="1.6" fill="white" opacity="0.4"/>
<circle cx="1664" cy="527" r="1.6" fill="white" opacity="0.8"/>
<circle cx="460" cy="205" r="1.2" fill="white" opacity="0.5"/>
<circle cx="1704" cy="767" r="2.0" fill="white" opacity="0.7"/>
<circle cx="1316" cy="493" r="1.4" fill="white" opacity="0.4"/>
<circle cx="560" cy="943" r="2.0" fill="white" opacity="0.8"/>
<circle cx="1532" cy="37" r="0.6" fill="white" opacity="0.7"/>
<circle cx="1800" cy="1009" r="1.6" fill="white" opacity="0.7"/>
<circle cx="428" cy="573" r="1.4" fill="white" opacity="0.6"/>
<circle cx="800" cy="223" r="1.8" fill="white" opacity="0.8"/>
<circle cx="1452" cy="181" r="1.2" fill="white" opacity="0.6"/>
<circle cx="440" cy="697" r="0.4" fill="white" opacity="0.7"/>
<circle cx="1020" cy="285" r="1.4" fill="white" opacity="0.8"/>
<circle cx="1392" cy="999" r="0.8" fill="white" opacity="0.3"/>
<circle cx="92" cy="59" r="0.4" fill="white" opacity="0.8"/>
<circle cx="1304" cy="321" r="2.0" fill="white" opacity="0.5"/>
<circle cx="1228" cy="75" r="1.8" fill="white" opacity="0.9"/>
<circle cx="192" cy="113" r="2.0" fill="white" opacity="0.8"/>
<circle cx="1780" cy="955" r="1.0" fill="white" opacity="0.5"/>
<circle cx="1304" cy="481" r="2.0" fill="white" opacity="0.3"/>
<circle cx="868" cy="515" r="0.4" fill="white" opacity="0.6"/>
<circle cx="272" cy="975" r="0.8" fill="white" opacity="0.7"/>
<circle cx="1860" cy="723" r="1.6" fill="white" opacity="0.4"/>
<circle cx="1352" cy="905" r="1.2" fill="white" opacity="0.7"/>
<circle cx="1300" cy="331" r="0.8" fill="white" opacity="0.8"/>
<circle cx="672" cy="159" r="0.4" fill="white" opacity="0.5"/>
<circle cx="1900" cy="683" r="1.4" fill="white" opacity="0.9"/>
<circle cx="1400" cy="239" r="1.4" fill="white" opacity="0.9"/>
<circle cx="68" cy="491" r="1.2" fill="white" opacity="0.3"/>
<circle cx="1616" cy="137" r="0.8" fill="white" opacity="0.5"/>
<circle cx="1252" cy="851" r="0.4" fill="white" opacity="0.7"/>
<circle cx="88" cy="225" r="0.8" fill="white" opacity="0.8"/>
<circle cx="1524" cy="771" r="1.8" fill="white" opacity="0.9"/>
<circle cx="384" cy="305" r="1.6" fill="white" opacity="0.3"/>
<circle cx="308" cy="163" r="0.8" fill="white" opacity="0.7"/>
<circle cx="1320" cy="383" r="1.6" fill="white" opacity="0.6"/>
<circle cx="804" cy="131" r="0.6" fill="white" opacity="0.5"/>
<circle cx="464" cy="991" r="1.0" fill="white" opacity="0.9"/>
<circle cx="1796" cy="859" r="1.4" fill="white" opacity="0.7"/>
<circle cx="1400" cy="799" r="1.2" fill="white" opacity="0.9"/>
<circle cx="1068" cy="285" r="0.6" fill="white" opacity="0.8"/>
<circle cx="1248" cy="985" r="1.6" fill="white" opacity="0.5"/>
<circle cx="428" cy="701" r="2.0" fill="white" opacity="0.4"/>
<circle cx="1080" cy="729" r="2.0" fill="white" opacity="0.7"/>
<circle cx="1540" cy="907" r="0.6" fill="white" opacity="0.4"/>
<circle cx="1648" cy="455" r="1.2" fill="white" opacity="0.9"/>
<circle cx="1316" cy="371" r="1.8" fill="white" opacity="0.3"/>
<circle cx="744" cy="817" r="0.8" fill="white" opacity="0.5"/>
<circle cx="460" cy="453" r="1.6" fill="white" opacity="0.3"/>
<circle cx="960" cy="1033" r="1.0" fill="white" opacity="0.4"/>
<circle cx="1652" cy="21" r="0.4" fill="white" opacity="0.5"/>
<circle cx="24" cy="791" r="1.4" fill="white" opacity="0.9"/>
<circle cx="156" cy="901" r="2.0" fill="white" opacity="0.7"/>
<circle cx="752" cy="383" r="1.4" fill="white" opacity="0.7"/>
<circle cx="1852" cy="549" r="1.2" fill="white" opacity="0.9"/>
<circle cx="312" cy="97" r="1.0" fill="white" opacity="0.6"/>
<circle cx="276" cy="69" r="2.0" fill="white" opacity="0.4"/>
<circle cx="672" cy="1031" r="0.6" fill="white" opacity="0.5"/>
<circle cx="1644" cy="675" r="1.6" fill="white" opacity="0.3"/>
<circle cx="504" cy="793" r="2.0" fill="white" opacity="0.7"/>
<circle cx="188" cy="299" r="1.2" fill="white" opacity="0.4"/>
<circle cx="976" cy="937" r="1.2" fill="white" opacity="0.5"/>
<circle cx="612" cy="147" r="1.2" fill="white" opacity="0.6"/>
<circle cx="680" cy="609" r="1.6" fill="white" opacity="0.4"/>
<circle cx="1676" cy="587" r="0.4" fill="white" opacity="0.6"/>
<circle cx="1280" cy="81" r="1.2" fill="white" opacity="0.5"/>
<circle cx="1588" cy="469" r="0.4" fill="white" opacity="0.5"/>
<circle cx="552" cy="1063" r="1.2" fill="white" opacity="0.6"/>
<circle cx="1884" cy="797" r="1.0" fill="white" opacity="0.8"/>
<circle cx="1200" cy="417" r="1.8" fill="white" opacity="0.7"/>
<circle cx="252" cy="939" r="1.0" fill="white" opacity="0.3"/>
<circle cx="136" cy="343" r="1.8" fill="white" opacity="0.7"/>
<circle cx="1748" cy="253" r="0.4" fill="white" opacity="0.9"/>
<circle cx="416" cy="383" r="1.8" fill="white" opacity="0.5"/>
<circle cx="468" cy="219" r="0.4" fill="white" opacity="0.8"/>
<circle cx="1592" cy="503" r="1.0" fill="white" opacity="0.4"/>
<circle cx="132" cy="587" r="1.8" fill="white" opacity="0.9"/>
<circle cx="1168" cy="727" r="0.8" fill="white" opacity="0.7"/>
<circle cx="1500" cy="283" r="1.2" fill="white" opacity="0.5"/>
<circle cx="1560" cy="465" r="1.2" fill="white" opacity="0.9"/>
<circle cx="588" cy="445" r="0.6" fill="white" opacity="0.8"/>
<circle cx="576" cy="825" r="1.0" fill="white" opacity="0.6"/>
<circle cx="1164" cy="85" r="1.8" fill="white" opacity="0.6"/>
<circle cx="1000" cy="711" r="1.2" fill="white" opacity="0.7"/>
<circle cx="1892" cy="125" r="0.8" fill="white" opacity="0.4"/>
<circle cx="112" cy="553" r="1.6" fill="white" opacity="0.6"/>
<circle cx="1340" cy="779" r="1.2" fill="white" opacity="0.6"/>
<circle cx="1864" cy="305" r="1.8" fill="white" opacity="0.8"/>
<circle cx="1260" cy="1029" r="1.4" fill="white" opacity="0.3"/>
<circle cx="224" cy="153" r="1.6" fill="white" opacity="0.7"/>
<circle cx="916" cy="221" r="0.6" fill="white" opacity="0.4"/>
<circle cx="520" cy="647" r="1.4" fill="white" opacity="0.3"/>
<circle cx="1468" cy="205" r="0.4" fill="white" opacity="0.3"/>
<circle cx="1104" cy="423" r="0.4" fill="white" opacity="0.3"/>
<circle cx="540" cy="701" r="1.4" fill="white" opacity="0.3"/>
<circle cx="168" cy="871" r="1.4" fill="white" opacity="0.4"/>
<circle cx="1908" cy="867" r="0.4" fill="white" opacity="0.3"/>
<circle cx="256" cy="879" r="1.0" fill="white" opacity="0.7"/>
<circle cx="1076" cy="27" r="1.2" fill="white" opacity="0.4"/>
<circle cx="1064" cy="945" r="2.0" fill="white" opacity="0.3"/>
<circle cx="860" cy="725" r="1.0" fill="white" opacity="0.6"/>
<circle cx="944" cy="1057" r="1.4" fill="white" opacity="0.9"/>
<circle cx="1668" cy="213" r="1.6" fill="white" opacity="0.9"/>
<circle cx="1400" cy="497" r="1.2" fill="white" opacity="0.3"/>
<circle cx="172" cy="5" r="1.6" fill="white" opacity="0.4"/>
<circle cx="96" cy="615" r="0.4" fill="white" opacity="0.4"/>
<circle cx="172" cy="699" r="0.6" fill="white" opacity="0.3"/>
<circle cx="1608" cy="753" r="1.6" fill="white" opacity="0.3"/>
<circle cx="388" cy="389" r="0.4" fill="white" opacity="0.3"/>
<circle cx="272" cy="433" r="0.4" fill="white" opacity="0.6"/>
<circle cx="1116" cy="459" r="1.6" fill="white" opacity="0.8"/>
<circle cx="1560" cy="9" r="1.4" fill="white" opacity="0.9"/>
<circle cx="52" cy="45" r="1.4" fill="white" opacity="0.6"/>
<circle cx="1600" cy="889" r="1.4" fill="white" opacity="0.4"/>
<circle cx="884" cy="501" r="1.0" fill="white" opacity="0.5"/>
<circle cx="920" cy="927" r="2.0" fill="white" opacity="0.4"/>
<circle cx="612" cy="157" r="1.2" fill="white" opacity="0.5"/>
<circle cx="1040" cy="841" r="1.2" fill="white" opacity="0.6"/>
<circle cx="1468" cy="181" r="1.6" fill="white" opacity="0.7"/>
<circle cx="1592" cy="113" r="0.6" fill="white" opacity="0.8"/>
<circle cx="532" cy="699" r="1.2" fill="white" opacity="0.9"/>
<circle cx="480" cy="759" r="0.4" fill="white" opacity="0.5"/>
<circle cx="788" cy="123" r="0.6" fill="white" opacity="0.5"/>
<circle cx="904" cy="191" r="0.4" fill="white" opacity="0.3"/>
<circle cx="316" cy="451" r="0.6" fill="white" opacity="0.3"/>
<circle cx="944" cy="1" r="1.4" fill="white" opacity="0.5"/>
<circle cx="1124" cy="203" r="0.8" fill="white" opacity="0.3"/>
<circle cx="984" cy="695" r="0.6" fill="white" opacity="0.8"/>
<circle cx="500" cy="77" r="1.0" fill="white" opacity="0.5"/>
<circle cx="1280" cy="57" r="0.6" fill="white" opacity="0.3"/>
<circle cx="1716" cy="851" r="2.0" fill="white" opacity="0.7"/>
  <ellipse cx="960" cy="540" rx="700" ry="450" fill="url(#neb)"/>
            <!-- スキャンライン風 -->
            <line x1="0" y1="0" x2="1920" y2="0" stroke="#200a0a" stroke-width="1" opacity="0.3"/><line x1="0" y1="20" x2="1920" y2="20" stroke="#200a0a" stroke-width="1" opacity="0.3"/><line x1="0" y1="40" x2="1920" y2="40" stroke="#200a0a" stroke-width="1" opacity="0.3"/><line x1="0" y1="60" x2="1920" y2="60" stroke="#200a0a" stroke-width="1" opacity="0.3"/><line x1="0" y1="80" x2="1920" y2="80" stroke="#200a0a" stroke-width="1" opacity="0.3"/><line x1="0" y1="100" x2="1920" y2="100" stroke="#200a0a" stroke-width="1" opacity="0.3"/><line x1="0" y1="120" x2="1920" y2="120" stroke="#200a0a" stroke-width="1" opacity="0.3"/><line x1="0" y1="140" x2="1920" y2="140" stroke="#200a0a" stroke-width="1" opacity="0.3"/><line x1="0" y1="160" x2="1920" y2="160" stroke="#200a0a" stroke-width="1" opacity="0.3"/><line x1="0" y1="180" x2="1920" y2="180" stroke="#200a0a" stroke-width="1" opacity="0.3"/><line x1="0" y1="200" x2="1920" y2="200" stroke="#200a0a" stroke-width="1" opacity="0.3"/><line x1="0" y1="220" x2="1920" y2="220" stroke="#200a0a" stroke-width="1" opacity="0.3"/><line x1="0" y1="240" x2="1920" y2="240" stroke="#200a0a" stroke-width="1" opacity="0.3"/><line x1="0" y1="260" x2="1920" y2="260" stroke="#200a0a" stroke-width="1" opacity="0.3"/><line x1="0" y1="280" x2="1920" y2="280" stroke="#200a0a" stroke-width="1" opacity="0.3"/><line x1="0" y1="300" x2="1920" y2="300" stroke="#200a0a" stroke-width="1" opacity="0.3"/><line x1="0" y1="320" x2="1920" y2="320" stroke="#200a0a" stroke-width="1" opacity="0.3"/><line x1="0" y1="340" x2="1920" y2="340" stroke="#200a0a" stroke-width="1" opacity="0.3"/><line x1="0" y1="360" x2="1920" y2="360" stroke="#200a0a" stroke-width="1" opacity="0.3"/><line x1="0" y1="380" x2="1920" y2="380" stroke="#200a0a" stroke-width="1" opacity="0.3"/><line x1="0" y1="400" x2="1920" y2="400" stroke="#200a0a" stroke-width="1" opacity="0.3"/><line x1="0" y1="420" x2="1920" y2="420" stroke="#200a0a" stroke-width="1" opacity="0.3"/><line x1="0" y1="440" x2="1920" y2="440" stroke="#200a0a" stroke-width="1" opacity="0.3"/><line x1="0" y1="460" x2="1920" y2="460" stroke="#200a0a" stroke-width="1" opacity="0.3"/><line x1="0" y1="480" x2="1920" y2="480" stroke="#200a0a" stroke-width="1" opacity="0.3"/><line x1="0" y1="500" x2="1920" y2="500" stroke="#200a0a" stroke-width="1" opacity="0.3"/><line x1="0" y1="520" x2="1920" y2="520" stroke="#200a0a" stroke-width="1" opacity="0.3"/><line x1="0" y1="540" x2="1920" y2="540" stroke="#200a0a" stroke-width="1" opacity="0.3"/><line x1="0" y1="560" x2="1920" y2="560" stroke="#200a0a" stroke-width="1" opacity="0.3"/><line x1="0" y1="580" x2="1920" y2="580" stroke="#200a0a" stroke-width="1" opacity="0.3"/><line x1="0" y1="600" x2="1920" y2="600" stroke="#200a0a" stroke-width="1" opacity="0.3"/><line x1="0" y1="620" x2="1920" y2="620" stroke="#200a0a" stroke-width="1" opacity="0.3"/><line x1="0" y1="640" x2="1920" y2="640" stroke="#200a0a" stroke-width="1" opacity="0.3"/><line x1="0" y1="660" x2="1920" y2="660" stroke="#200a0a" stroke-width="1" opacity="0.3"/><line x1="0" y1="680" x2="1920" y2="680" stroke="#200a0a" stroke-width="1" opacity="0.3"/><line x1="0" y1="700" x2="1920" y2="700" stroke="#200a0a" stroke-width="1" opacity="0.3"/><line x1="0" y1="720" x2="1920" y2="720" stroke="#200a0a" stroke-width="1" opacity="0.3"/><line x1="0" y1="740" x2="1920" y2="740" stroke="#200a0a" stroke-width="1" opacity="0.3"/><line x1="0" y1="760" x2="1920" y2="760" stroke="#200a0a" stroke-width="1" opacity="0.3"/><line x1="0" y1="780" x2="1920" y2="780" stroke="#200a0a" stroke-width="1" opacity="0.3"/><line x1="0" y1="800" x2="1920" y2="800" stroke="#200a0a" stroke-width="1" opacity="0.3"/><line x1="0" y1="820" x2="1920" y2="820" stroke="#200a0a" stroke-width="1" opacity="0.3"/><line x1="0" y1="840" x2="1920" y2="840" stroke="#200a0a" stroke-width="1" opacity="0.3"/><line x1="0" y1="860" x2="1920" y2="860" stroke="#200a0a" stroke-width="1" opacity="0.3"/><line x1="0" y1="880" x2="1920" y2="880" stroke="#200a0a" stroke-width="1" opacity="0.3"/><line x1="0" y1="900" x2="1920" y2="900" stroke="#200a0a" stroke-width="1" opacity="0.3"/><line x1="0" y1="920" x2="1920" y2="920" stroke="#200a0a" stroke-width="1" opacity="0.3"/><line x1="0" y1="940" x2="1920" y2="940" stroke="#200a0a" stroke-width="1" opacity="0.3"/><line x1="0" y1="960" x2="1920" y2="960" stroke="#200a0a" stroke-width="1" opacity="0.3"/><line x1="0" y1="980" x2="1920" y2="980" stroke="#200a0a" stroke-width="1" opacity="0.3"/><line x1="0" y1="1000" x2="1920" y2="1000" stroke="#200a0a" stroke-width="1" opacity="0.3"/><line x1="0" y1="1020" x2="1920" y2="1020" stroke="#200a0a" stroke-width="1" opacity="0.3"/><line x1="0" y1="1040" x2="1920" y2="1040" stroke="#200a0a" stroke-width="1" opacity="0.3"/><line x1="0" y1="1060" x2="1920" y2="1060" stroke="#200a0a" stroke-width="1" opacity="0.3"/>
            <!-- ターゲットサークル -->
            <circle cx="960" cy="540" r="280" fill="none" stroke="#8b0000" stroke-width="0.8" opacity="0.3" stroke-dasharray="6 10"/>
            <circle cx="960" cy="540" r="180" fill="none" stroke="#8b0000" stroke-width="0.6" opacity="0.25" stroke-dasharray="3 12"/>
            <line x1="680" y1="540" x2="1240" y2="540" stroke="#8b0000" stroke-width="0.6" opacity="0.25"/>
            <line x1="960" y1="260" x2="960" y2="820" stroke="#8b0000" stroke-width="0.6" opacity="0.25"/>
            <text x="960" y="980" text-anchor="middle" font-family="monospace" font-size="18" fill="#8b2020" opacity="0.5" letter-spacing="8">FACTION INTEL — CLASSIFIED</text>
</svg>