<?xml version="1.0" encoding="UTF-8"?>
<svg xmlns="http://www.w3.org/2000/svg" width="1920" height="1080" viewBox="0 0 1920 1080">
  <defs>
    
      <radialGradient id="bg" cx="50%" cy="50%" r="80%">
        <stop offset="0%" stop-color="#0e0c02"/>
        <stop offset="100%" stop-color="#030200"/>
      </radialGradient>
      <radialGradient id="neb" cx="50%" cy="55%" r="50%">
        <stop offset="0%" stop-color="#2a2000" stop-opacity="0.6"/>
        <stop offset="100%" stop-color="#2a2000" stop-opacity="0"/>
      </radialGradient>
  </defs>
  <rect width="1920" height="1080" fill="url(#bg)"/>
  <circle cx="358" cy="53" r="1.8" fill="white" opacity="0.7"/>
<circle cx="250" cy="639" r="1.4" fill="white" opacity="0.9"/>
<circle cx="1714" cy="37" r="0.6" fill="white" opacity="0.7"/>
<circle cx="866" cy="849" r="0.8" fill="white" opacity="0.5"/>
<circle cx="586" cy="819" r="1.8" fill="white" opacity="0.6"/>
<circle cx="566" cy="969" r="0.8" fill="white" opacity="0.7"/>
<circle cx="1890" cy="21" r="1.4" fill="white" opacity="0.6"/>
<circle cx="1102" cy="169" r="1.2" fill="white" opacity="0.3"/>
<circle cx="1146" cy="485" r="1.0" fill="white" opacity="0.4"/>
<circle cx="1562" cy="511" r="0.6" fill="white" opacity="0.8"/>
<circle cx="914" cy="357" r="1.0" fill="white" opacity="0.7"/>
<circle cx="254" cy="345" r="1.4" fill="white" opacity="0.9"/>
<circle cx="810" cy="755" r="0.6" fill="white" opacity="0.9"/>
<circle cx="534" cy="623" r="0.6" fill="white" opacity="0.6"/>
<circle cx="322" cy="1021" r="0.8" fill="white" opacity="0.9"/>
<circle cx="1362" cy="89" r="1.6" fill="white" opacity="0.6"/>
<circle cx="474" cy="669" r="1.2" fill="white" opacity="0.5"/>
<circle cx="1734" cy="191" r="2.0" fill="white" opacity="0.4"/>
<circle cx="526" cy="733" r="0.8" fill="white" opacity="0.6"/>
<circle cx="1314" cy="695" r="1.2" fill="white" opacity="0.4"/>
<circle cx="1142" cy="765" r="1.6" fill="white" opacity="0.8"/>
<circle cx="118" cy="399" r="0.4" fill="white" opacity="0.5"/>
<circle cx="1758" cy="739" r="0.8" fill="white" opacity="0.4"/>
<circle cx="1806" cy="465" r="1.8" fill="white" opacity="0.9"/>
<circle cx="1862" cy="669" r="0.4" fill="white" opacity="0.8"/>
<circle cx="806" cy="327" r="0.6" fill="white" opacity="0.6"/>
<circle cx="1618" cy="341" r="1.0" fill="white" opacity="0.6"/>
<circle cx="450" cy="889" r="1.2" fill="white" opacity="0.3"/>
<circle cx="406" cy="147" r="0.4" fill="white" opacity="0.4"/>
<circle cx="298" cy="105" r="1.0" fill="white" opacity="0.5"/>
<circle cx="1406" cy="1029" r="0.4" fill="white" opacity="0.4"/>
<circle cx="1810" cy="479" r="1.8" fill="white" opacity="0.7"/>
<circle cx="1306" cy="893" r="1.6" fill="white" opacity="0.5"/>
<circle cx="1798" cy="129" r="2.0" fill="white" opacity="0.5"/>
<circle cx="718" cy="477" r="0.6" fill="white" opacity="0.6"/>
<circle cx="1438" cy="465" r="1.0" fill="white" opacity="0.9"/>
<circle cx="74" cy="365" r="2.0" fill="white" opacity="0.5"/>
<circle cx="1718" cy="1049" r="1.2" fill="white" opacity="0.5"/>
<circle cx="1182" cy="227" r="0.4" fill="white" opacity="0.4"/>
<circle cx="1074" cy="591" r="0.6" fill="white" opacity="0.8"/>
<circle cx="890" cy="219" r="1.8" fill="white" opacity="0.9"/>
<circle cx="614" cy="833" r="1.8" fill="white" opacity="0.5"/>
<circle cx="1134" cy="691" r="0.8" fill="white" opacity="0.7"/>
<circle cx="1662" cy="417" r="0.6" fill="white" opacity="0.4"/>
<circle cx="854" cy="645" r="0.8" fill="white" opacity="0.4"/>
<circle cx="918" cy="737" r="0.6" fill="white" opacity="0.8"/>
<circle cx="194" cy="459" r="1.4" fill="white" opacity="0.6"/>
<circle cx="174" cy="727" r="1.0" fill="white" opacity="0.6"/>
<circle cx="38" cy="27" r="1.4" fill="white" opacity="0.6"/>
<circle cx="570" cy="567" r="1.6" fill="white" opacity="0.8"/>
<circle cx="1010" cy="99" r="1.0" fill="white" opacity="0.4"/>
<circle cx="1118" cy="273" r="1.8" fill="white" opacity="0.8"/>
<circle cx="394" cy="467" r="1.8" fill="white" opacity="0.6"/>
<circle cx="394" cy="249" r="1.0" fill="white" opacity="0.4"/>
<circle cx="1758" cy="637" r="0.4" fill="white" opacity="0.8"/>
<circle cx="910" cy="743" r="0.6" fill="white" opacity="0.5"/>
<circle cx="1862" cy="597" r="0.8" fill="white" opacity="0.6"/>
<circle cx="550" cy="825" r="1.6" fill="white" opacity="0.4"/>
<circle cx="1838" cy="123" r="1.0" fill="white" opacity="0.3"/>
<circle cx="1598" cy="561" r="2.0" fill="white" opacity="0.5"/>
<circle cx="918" cy="533" r="0.4" fill="white" opacity="0.8"/>
<circle cx="1366" cy="263" r="0.6" fill="white" opacity="0.7"/>
<circle cx="1026" cy="397" r="1.2" fill="white" opacity="0.9"/>
<circle cx="110" cy="505" r="1.8" fill="white" opacity="0.6"/>
<circle cx="998" cy="973" r="2.0" fill="white" opacity="0.5"/>
<circle cx="774" cy="185" r="1.6" fill="white" opacity="0.5"/>
<circle cx="1586" cy="213" r="0.6" fill="white" opacity="0.4"/>
<circle cx="1634" cy="1047" r="0.6" fill="white" opacity="0.5"/>
<circle cx="950" cy="835" r="1.2" fill="white" opacity="0.5"/>
<circle cx="1226" cy="737" r="2.0" fill="white" opacity="0.7"/>
<circle cx="1694" cy="277" r="0.6" fill="white" opacity="0.9"/>
<circle cx="946" cy="225" r="1.8" fill="white" opacity="0.4"/>
<circle cx="1670" cy="765" r="0.8" fill="white" opacity="0.5"/>
<circle cx="1562" cy="63" r="1.4" fill="white" opacity="0.9"/>
<circle cx="146" cy="613" r="1.6" fill="white" opacity="0.3"/>
<circle cx="386" cy="943" r="1.4" fill="white" opacity="0.9"/>
<circle cx="1750" cy="85" r="1.8" fill="white" opacity="0.5"/>
<circle cx="362" cy="929" r="1.4" fill="white" opacity="0.4"/>
<circle cx="1598" cy="619" r="0.8" fill="white" opacity="0.7"/>
<circle cx="978" cy="135" r="2.0" fill="white" opacity="0.7"/>
<circle cx="38" cy="19" r="1.6" fill="white" opacity="0.3"/>
<circle cx="1082" cy="431" r="0.4" fill="white" opacity="0.6"/>
<circle cx="1010" cy="35" r="1.8" fill="white" opacity="0.3"/>
<circle cx="990" cy="71" r="2.0" fill="white" opacity="0.4"/>
<circle cx="1398" cy="35" r="0.6" fill="white" opacity="0.4"/>
<circle cx="906" cy="623" r="1.2" fill="white" opacity="0.6"/>
<circle cx="1698" cy="317" r="1.0" fill="white" opacity="0.9"/>
<circle cx="14" cy="287" r="1.2" fill="white" opacity="0.7"/>
<circle cx="1734" cy="53" r="0.4" fill="white" opacity="0.3"/>
<circle cx="986" cy="729" r="1.6" fill="white" opacity="0.6"/>
<circle cx="1746" cy="973" r="2.0" fill="white" opacity="0.3"/>
<circle cx="1218" cy="81" r="0.8" fill="white" opacity="0.5"/>
<circle cx="1430" cy="323" r="0.4" fill="white" opacity="0.7"/>
<circle cx="1494" cy="233" r="1.8" fill="white" opacity="0.3"/>
<circle cx="642" cy="515" r="1.8" fill="white" opacity="0.3"/>
<circle cx="1006" cy="23" r="0.8" fill="white" opacity="0.4"/>
<circle cx="1434" cy="909" r="2.0" fill="white" opacity="0.4"/>
<circle cx="1530" cy="799" r="0.4" fill="white" opacity="0.6"/>
<circle cx="178" cy="749" r="2.0" fill="white" opacity="0.7"/>
<circle cx="1310" cy="417" r="1.8" fill="white" opacity="0.9"/>
<circle cx="1590" cy="179" r="2.0" fill="white" opacity="0.5"/>
<circle cx="1846" cy="553" r="1.4" fill="white" opacity="0.3"/>
<circle cx="30" cy="1051" r="1.2" fill="white" opacity="0.3"/>
<circle cx="718" cy="447" r="1.4" fill="white" opacity="0.3"/>
<circle cx="250" cy="197" r="1.6" fill="white" opacity="0.6"/>
<circle cx="230" cy="135" r="1.0" fill="white" opacity="0.8"/>
<circle cx="110" cy="243" r="0.6" fill="white" opacity="0.6"/>
<circle cx="770" cy="369" r="1.4" fill="white" opacity="0.9"/>
<circle cx="1238" cy="725" r="2.0" fill="white" opacity="0.9"/>
<circle cx="1046" cy="607" r="2.0" fill="white" opacity="0.4"/>
<circle cx="834" cy="963" r="1.2" fill="white" opacity="0.3"/>
<circle cx="1234" cy="1047" r="1.2" fill="white" opacity="0.7"/>
<circle cx="934" cy="387" r="1.0" fill="white" opacity="0.6"/>
<circle cx="1594" cy="505" r="0.6" fill="white" opacity="0.7"/>
<circle cx="1138" cy="885" r="0.4" fill="white" opacity="0.6"/>
<circle cx="930" cy="217" r="1.4" fill="white" opacity="0.3"/>
<circle cx="1526" cy="331" r="2.0" fill="white" opacity="0.4"/>
<circle cx="1162" cy="799" r="1.8" fill="white" opacity="0.6"/>
<circle cx="1886" cy="805" r="1.4" fill="white" opacity="0.7"/>
<circle cx="242" cy="927" r="0.8" fill="white" opacity="0.5"/>
<circle cx="966" cy="963" r="0.4" fill="white" opacity="0.4"/>
<circle cx="1498" cy="753" r="2.0" fill="white" opacity="0.5"/>
<circle cx="82" cy="419" r="1.4" fill="white" opacity="0.4"/>
<circle cx="1858" cy="625" r="1.6" fill="white" opacity="0.6"/>
<circle cx="618" cy="1061" r="0.8" fill="white" opacity="0.9"/>
<circle cx="1834" cy="815" r="2.0" fill="white" opacity="0.6"/>
<circle cx="1154" cy="181" r="1.2" fill="white" opacity="0.7"/>
<circle cx="1810" cy="729" r="1.2" fill="white" opacity="0.8"/>
<circle cx="742" cy="237" r="1.2" fill="white" opacity="0.7"/>
<circle cx="890" cy="223" r="1.0" fill="white" opacity="0.7"/>
<circle cx="818" cy="965" r="1.2" fill="white" opacity="0.8"/>
<circle cx="1182" cy="1063" r="1.4" fill="white" opacity="0.9"/>
<circle cx="458" cy="1021" r="1.2" fill="white" opacity="0.8"/>
<circle cx="1078" cy="553" r="2.0" fill="white" opacity="0.6"/>
<circle cx="1506" cy="453" r="1.0" fill="white" opacity="0.7"/>
<circle cx="1202" cy="185" r="1.4" fill="white" opacity="0.6"/>
<circle cx="1030" cy="853" r="1.6" fill="white" opacity="0.8"/>
<circle cx="102" cy="905" r="1.2" fill="white" opacity="0.4"/>
<circle cx="274" cy="93" r="1.0" fill="white" opacity="0.4"/>
<circle cx="386" cy="487" r="0.6" fill="white" opacity="0.6"/>
<circle cx="1066" cy="443" r="1.0" fill="white" opacity="0.7"/>
<circle cx="874" cy="1039" r="0.6" fill="white" opacity="0.9"/>
<circle cx="1086" cy="683" r="1.0" fill="white" opacity="0.4"/>
<circle cx="1874" cy="823" r="0.8" fill="white" opacity="0.8"/>
<circle cx="294" cy="515" r="0.4" fill="white" opacity="0.4"/>
<circle cx="58" cy="369" r="0.4" fill="white" opacity="0.9"/>
<circle cx="1138" cy="309" r="1.2" fill="white" opacity="0.6"/>
<circle cx="1186" cy="1079" r="1.4" fill="white" opacity="0.8"/>
<circle cx="394" cy="725" r="1.4" fill="white" opacity="0.7"/>
<circle cx="758" cy="857" r="0.8" fill="white" opacity="0.4"/>
<circle cx="1058" cy="483" r="0.4" fill="white" opacity="0.4"/>
<circle cx="1806" cy="175" r="0.6" fill="white" opacity="0.5"/>
<circle cx="1210" cy="477" r="1.2" fill="white" opacity="0.3"/>
<circle cx="858" cy="105" r="1.2" fill="white" opacity="0.4"/>
<circle cx="338" cy="947" r="2.0" fill="white" opacity="0.8"/>
<circle cx="958" cy="951" r="1.6" fill="white" opacity="0.3"/>
<circle cx="150" cy="1061" r="1.0" fill="white" opacity="0.3"/>
<circle cx="1494" cy="657" r="1.4" fill="white" opacity="0.6"/>
<circle cx="258" cy="517" r="1.2" fill="white" opacity="0.7"/>
<circle cx="1426" cy="313" r="1.4" fill="white" opacity="0.8"/>
<circle cx="998" cy="427" r="1.2" fill="white" opacity="0.8"/>
<circle cx="1018" cy="505" r="1.4" fill="white" opacity="0.9"/>
<circle cx="1102" cy="821" r="2.0" fill="white" opacity="0.4"/>
<circle cx="994" cy="455" r="0.8" fill="white" opacity="0.7"/>
<circle cx="1738" cy="707" r="0.6" fill="white" opacity="0.5"/>
<circle cx="1354" cy="439" r="1.8" fill="white" opacity="0.9"/>
<circle cx="1566" cy="45" r="1.4" fill="white" opacity="0.3"/>
<circle cx="462" cy="327" r="0.6" fill="white" opacity="0.3"/>
<circle cx="1530" cy="725" r="0.6" fill="white" opacity="0.9"/>
<circle cx="154" cy="569" r="1.8" fill="white" opacity="0.8"/>
<circle cx="530" cy="267" r="0.6" fill="white" opacity="0.4"/>
<circle cx="130" cy="639" r="1.6" fill="white" opacity="0.5"/>
<circle cx="42" cy="259" r="0.6" fill="white" opacity="0.8"/>
<circle cx="106" cy="463" r="1.2" fill="white" opacity="0.5"/>
<circle cx="1726" cy="413" r="0.6" fill="white" opacity="0.8"/>
<circle cx="430" cy="679" r="0.4" fill="white" opacity="0.6"/>
<circle cx="730" cy="829" r="0.6" fill="white" opacity="0.8"/>
<circle cx="442" cy="87" r="0.6" fill="white" opacity="0.4"/>
<circle cx="1678" cy="973" r="1.4" fill="white" opacity="0.8"/>
<circle cx="1246" cy="145" r="1.2" fill="white" opacity="0.3"/>
  <ellipse cx="960" cy="580" rx="650" ry="380" fill="url(#neb)"/>
            <line x1="160" y1="200" x2="1760" y2="200" stroke="#3a2e00" stroke-width="0.8" opacity="0.5"/><line x1="160" y1="280" x2="1760" y2="280" stroke="#3a2e00" stroke-width="0.8" opacity="0.5"/><line x1="160" y1="360" x2="1760" y2="360" stroke="#3a2e00" stroke-width="0.8" opacity="0.5"/><line x1="160" y1="440" x2="1760" y2="440" stroke="#3a2e00" stroke-width="0.8" opacity="0.5"/><line x1="160" y1="520" x2="1760" y2="520" stroke="#3a2e00" stroke-width="0.8" opacity="0.5"/><line x1="160" y1="600" x2="1760" y2="600" stroke="#3a2e00" stroke-width="0.8" opacity="0.5"/><line x1="160" y1="680" x2="1760" y2="680" stroke="#3a2e00" stroke-width="0.8" opacity="0.5"/><line x1="160" y1="760" x2="1760" y2="760" stroke="#3a2e00" stroke-width="0.8" opacity="0.5"/><line x1="160" y1="840" x2="1760" y2="840" stroke="#3a2e00" stroke-width="0.8" opacity="0.5"/>
            <line x1="160" y1="180" x2="160" y2="900" stroke="#3a2e00" stroke-width="0.8" opacity="0.4"/><line x1="360" y1="180" x2="360" y2="900" stroke="#3a2e00" stroke-width="0.8" opacity="0.4"/><line x1="560" y1="180" x2="560" y2="900" stroke="#3a2e00" stroke-width="0.8" opacity="0.4"/><line x1="760" y1="180" x2="760" y2="900" stroke="#3a2e00" stroke-width="0.8" opacity="0.4"/><line x1="960" y1="180" x2="960" y2="900" stroke="#3a2e00" stroke-width="0.8" opacity="0.4"/><line x1="1160" y1="180" x2="1160" y2="900" stroke="#3a2e00" stroke-width="0.8" opacity="0.4"/><line x1="1360" y1="180" x2="1360" y2="900" stroke="#3a2e00" stroke-width="0.8" opacity="0.4"/><line x1="1560" y1="180" x2="1560" y2="900" stroke="#3a2e00" stroke-width="0.8" opacity="0.4"/><line x1="1760" y1="180" x2="1760" y2="900" stroke="#3a2e00" stroke-width="0.8" opacity="0.4"/>
            <polyline points="160,720 360,680 560,600 660,580 760,520 860,500 960,460 1060,490 1160,420 1360,380 1560,340 1760,320"
              fill="none" stroke="#c87800" stroke-width="2" opacity="0.35"/>
            <polyline points="160,820 360,790 560,750 760,700 960,660 1160,620 1360,590 1560,560 1760,540"
              fill="none" stroke="#805010" stroke-width="1.5" opacity="0.25"/>
            <text x="960" y="980" text-anchor="middle" font-family="monospace" font-size="18" fill="#a06010" opacity="0.5" letter-spacing="8">GRAND EXCHANGE — MARKET FEED</text>
</svg>