<?xml version="1.0" encoding="UTF-8"?>
<svg xmlns="http://www.w3.org/2000/svg" width="1920" height="1080" viewBox="0 0 1920 1080">
  <defs>
    
      <radialGradient id="bg" cx="50%" cy="50%" r="80%">
        <stop offset="0%" stop-color="#0d0626"/>
        <stop offset="60%" stop-color="#07031a"/>
        <stop offset="100%" stop-color="#000005"/>
      </radialGradient>
      <radialGradient id="neb" cx="40%" cy="45%" r="50%">
        <stop offset="0%" stop-color="#4a1070" stop-opacity="0.55"/>
        <stop offset="100%" stop-color="#4a1070" stop-opacity="0"/>
      </radialGradient>
      <radialGradient id="neb2" cx="70%" cy="60%" r="35%">
        <stop offset="0%" stop-color="#102050" stop-opacity="0.5"/>
        <stop offset="100%" stop-color="#102050" stop-opacity="0"/>
      </radialGradient>
  </defs>
  <rect width="1920" height="1080" fill="url(#bg)"/>
  <circle cx="1153" cy="628" r="2.1" fill="white" opacity="0.4"/>
<circle cx="1221" cy="832" r="2.1" fill="white" opacity="0.5"/>
<circle cx="1847" cy="572" r="1.3" fill="white" opacity="0.6"/>
<circle cx="627" cy="24" r="1.9" fill="white" opacity="0.4"/>
<circle cx="17" cy="20" r="1.9" fill="white" opacity="0.3"/>
<circle cx="1451" cy="128" r="1.5" fill="white" opacity="0.6"/>
<circle cx="1319" cy="812" r="2.1" fill="white" opacity="0.3"/>
<circle cx="925" cy="504" r="2.1" fill="white" opacity="0.4"/>
<circle cx="863" cy="612" r="2.1" fill="white" opacity="0.7"/>
<circle cx="1819" cy="368" r="1.5" fill="white" opacity="0.3"/>
<circle cx="1175" cy="900" r="0.9" fill="white" opacity="0.3"/>
<circle cx="45" cy="840" r="1.1" fill="white" opacity="0.5"/>
<circle cx="1615" cy="628" r="0.5" fill="white" opacity="0.5"/>
<circle cx="1653" cy="496" r="0.9" fill="white" opacity="0.3"/>
<circle cx="135" cy="1020" r="1.3" fill="white" opacity="0.8"/>
<circle cx="1597" cy="184" r="1.9" fill="white" opacity="0.7"/>
<circle cx="193" cy="68" r="1.5" fill="white" opacity="0.8"/>
<circle cx="379" cy="400" r="0.9" fill="white" opacity="0.6"/>
<circle cx="1161" cy="420" r="1.1" fill="white" opacity="0.8"/>
<circle cx="717" cy="1064" r="0.9" fill="white" opacity="0.6"/>
<circle cx="1839" cy="572" r="1.5" fill="white" opacity="0.7"/>
<circle cx="1813" cy="672" r="0.5" fill="white" opacity="0.3"/>
<circle cx="1895" cy="52" r="1.7" fill="white" opacity="0.5"/>
<circle cx="221" cy="1032" r="0.7" fill="white" opacity="0.7"/>
<circle cx="927" cy="540" r="1.3" fill="white" opacity="0.3"/>
<circle cx="1061" cy="456" r="0.9" fill="white" opacity="0.9"/>
<circle cx="553" cy="916" r="0.7" fill="white" opacity="0.3"/>
<circle cx="1645" cy="408" r="0.5" fill="white" opacity="0.6"/>
<circle cx="1393" cy="620" r="0.5" fill="white" opacity="0.9"/>
<circle cx="75" cy="16" r="1.1" fill="white" opacity="0.4"/>
<circle cx="953" cy="884" r="2.1" fill="white" opacity="0.5"/>
<circle cx="643" cy="776" r="1.5" fill="white" opacity="0.5"/>
<circle cx="1153" cy="540" r="0.9" fill="white" opacity="0.3"/>
<circle cx="699" cy="328" r="1.9" fill="white" opacity="0.7"/>
<circle cx="1463" cy="36" r="0.9" fill="white" opacity="0.7"/>
<circle cx="653" cy="744" r="0.7" fill="white" opacity="0.6"/>
<circle cx="1391" cy="548" r="1.5" fill="white" opacity="0.5"/>
<circle cx="1365" cy="928" r="1.9" fill="white" opacity="0.9"/>
<circle cx="217" cy="908" r="1.9" fill="white" opacity="0.9"/>
<circle cx="355" cy="880" r="0.9" fill="white" opacity="0.4"/>
<circle cx="1631" cy="772" r="1.1" fill="white" opacity="0.3"/>
<circle cx="1051" cy="624" r="1.3" fill="white" opacity="0.3"/>
<circle cx="279" cy="428" r="0.9" fill="white" opacity="0.7"/>
<circle cx="1363" cy="776" r="0.9" fill="white" opacity="0.7"/>
<circle cx="1329" cy="460" r="1.7" fill="white" opacity="0.4"/>
<circle cx="1909" cy="1008" r="1.5" fill="white" opacity="0.7"/>
<circle cx="1287" cy="436" r="1.9" fill="white" opacity="0.8"/>
<circle cx="1213" cy="312" r="0.5" fill="white" opacity="0.6"/>
<circle cx="703" cy="1044" r="2.1" fill="white" opacity="0.3"/>
<circle cx="389" cy="1040" r="1.3" fill="white" opacity="0.3"/>
<circle cx="905" cy="948" r="1.5" fill="white" opacity="0.6"/>
<circle cx="845" cy="32" r="1.1" fill="white" opacity="0.9"/>
<circle cx="815" cy="124" r="0.7" fill="white" opacity="0.7"/>
<circle cx="1813" cy="1000" r="0.9" fill="white" opacity="0.4"/>
<circle cx="359" cy="1036" r="0.9" fill="white" opacity="0.4"/>
<circle cx="675" cy="984" r="1.9" fill="white" opacity="0.3"/>
<circle cx="927" cy="500" r="1.3" fill="white" opacity="0.7"/>
<circle cx="987" cy="344" r="1.1" fill="white" opacity="0.5"/>
<circle cx="727" cy="900" r="0.5" fill="white" opacity="0.8"/>
<circle cx="787" cy="912" r="2.1" fill="white" opacity="0.6"/>
<circle cx="625" cy="20" r="1.5" fill="white" opacity="0.3"/>
<circle cx="1483" cy="464" r="2.1" fill="white" opacity="0.8"/>
<circle cx="1351" cy="876" r="0.5" fill="white" opacity="0.3"/>
<circle cx="643" cy="1064" r="1.7" fill="white" opacity="0.7"/>
<circle cx="1281" cy="484" r="1.7" fill="white" opacity="0.4"/>
<circle cx="453" cy="536" r="1.7" fill="white" opacity="0.4"/>
<circle cx="1353" cy="28" r="0.5" fill="white" opacity="0.3"/>
<circle cx="115" cy="864" r="1.1" fill="white" opacity="0.4"/>
<circle cx="401" cy="1004" r="2.1" fill="white" opacity="0.5"/>
<circle cx="1067" cy="48" r="1.1" fill="white" opacity="0.5"/>
<circle cx="217" cy="332" r="0.5" fill="white" opacity="0.8"/>
<circle cx="99" cy="616" r="1.9" fill="white" opacity="0.9"/>
<circle cx="95" cy="44" r="1.7" fill="white" opacity="0.3"/>
<circle cx="923" cy="272" r="1.9" fill="white" opacity="0.8"/>
<circle cx="663" cy="412" r="0.7" fill="white" opacity="0.4"/>
<circle cx="301" cy="608" r="1.9" fill="white" opacity="0.6"/>
<circle cx="1871" cy="52" r="0.7" fill="white" opacity="0.8"/>
<circle cx="1909" cy="672" r="2.1" fill="white" opacity="0.9"/>
<circle cx="1017" cy="236" r="0.7" fill="white" opacity="0.6"/>
<circle cx="1213" cy="592" r="0.9" fill="white" opacity="0.7"/>
<circle cx="65" cy="652" r="1.9" fill="white" opacity="0.6"/>
<circle cx="1669" cy="912" r="1.3" fill="white" opacity="0.4"/>
<circle cx="1399" cy="356" r="0.9" fill="white" opacity="0.7"/>
<circle cx="691" cy="736" r="0.5" fill="white" opacity="0.5"/>
<circle cx="303" cy="388" r="2.1" fill="white" opacity="0.7"/>
<circle cx="1557" cy="368" r="1.7" fill="white" opacity="0.4"/>
<circle cx="537" cy="364" r="2.1" fill="white" opacity="0.3"/>
<circle cx="1117" cy="608" r="0.7" fill="white" opacity="0.3"/>
<circle cx="865" cy="868" r="1.3" fill="white" opacity="0.8"/>
<circle cx="91" cy="704" r="1.5" fill="white" opacity="0.8"/>
<circle cx="809" cy="60" r="1.9" fill="white" opacity="0.5"/>
<circle cx="1773" cy="320" r="1.5" fill="white" opacity="0.5"/>
<circle cx="15" cy="956" r="1.9" fill="white" opacity="0.4"/>
<circle cx="1461" cy="448" r="1.1" fill="white" opacity="0.4"/>
<circle cx="1351" cy="172" r="1.5" fill="white" opacity="0.8"/>
<circle cx="1021" cy="936" r="1.9" fill="white" opacity="0.9"/>
<circle cx="1919" cy="164" r="0.5" fill="white" opacity="0.9"/>
<circle cx="1733" cy="208" r="1.7" fill="white" opacity="0.5"/>
<circle cx="1847" cy="628" r="1.1" fill="white" opacity="0.7"/>
<circle cx="1677" cy="312" r="1.9" fill="white" opacity="0.9"/>
<circle cx="111" cy="764" r="0.9" fill="white" opacity="0.7"/>
<circle cx="981" cy="520" r="0.7" fill="white" opacity="0.4"/>
<circle cx="1703" cy="148" r="0.7" fill="white" opacity="0.5"/>
<circle cx="1821" cy="344" r="1.7" fill="white" opacity="0.9"/>
<circle cx="545" cy="148" r="0.9" fill="white" opacity="0.6"/>
<circle cx="283" cy="296" r="1.5" fill="white" opacity="0.4"/>
<circle cx="1513" cy="932" r="1.9" fill="white" opacity="0.5"/>
<circle cx="941" cy="88" r="1.3" fill="white" opacity="0.5"/>
<circle cx="1329" cy="372" r="1.7" fill="white" opacity="0.8"/>
<circle cx="907" cy="856" r="0.5" fill="white" opacity="0.6"/>
<circle cx="1799" cy="852" r="1.9" fill="white" opacity="0.9"/>
<circle cx="61" cy="904" r="0.7" fill="white" opacity="0.5"/>
<circle cx="961" cy="204" r="2.1" fill="white" opacity="0.8"/>
<circle cx="1147" cy="120" r="1.3" fill="white" opacity="0.5"/>
<circle cx="1655" cy="36" r="1.9" fill="white" opacity="0.3"/>
<circle cx="1459" cy="16" r="2.1" fill="white" opacity="0.3"/>
<circle cx="1455" cy="1012" r="1.5" fill="white" opacity="0.8"/>
<circle cx="149" cy="880" r="0.5" fill="white" opacity="0.3"/>
<circle cx="409" cy="532" r="1.1" fill="white" opacity="0.3"/>
<circle cx="291" cy="960" r="0.9" fill="white" opacity="0.8"/>
<circle cx="993" cy="396" r="1.9" fill="white" opacity="0.4"/>
<circle cx="859" cy="480" r="1.5" fill="white" opacity="0.8"/>
<circle cx="1367" cy="804" r="0.7" fill="white" opacity="0.6"/>
<circle cx="531" cy="8" r="2.1" fill="white" opacity="0.6"/>
<circle cx="1679" cy="476" r="1.9" fill="white" opacity="0.6"/>
<circle cx="181" cy="184" r="1.9" fill="white" opacity="0.9"/>
<circle cx="1351" cy="260" r="0.5" fill="white" opacity="0.5"/>
<circle cx="1539" cy="688" r="1.7" fill="white" opacity="0.4"/>
<circle cx="1279" cy="76" r="1.9" fill="white" opacity="0.5"/>
<circle cx="1467" cy="408" r="1.9" fill="white" opacity="0.7"/>
<circle cx="1207" cy="932" r="0.7" fill="white" opacity="0.7"/>
<circle cx="1651" cy="360" r="1.9" fill="white" opacity="0.4"/>
<circle cx="1903" cy="188" r="1.3" fill="white" opacity="0.5"/>
<circle cx="597" cy="488" r="0.7" fill="white" opacity="0.5"/>
<circle cx="345" cy="228" r="1.7" fill="white" opacity="0.8"/>
<circle cx="1693" cy="928" r="2.1" fill="white" opacity="0.4"/>
<circle cx="929" cy="692" r="1.3" fill="white" opacity="0.7"/>
<circle cx="357" cy="824" r="1.5" fill="white" opacity="0.9"/>
<circle cx="23" cy="708" r="0.5" fill="white" opacity="0.6"/>
<circle cx="813" cy="160" r="1.1" fill="white" opacity="0.7"/>
<circle cx="1841" cy="388" r="1.3" fill="white" opacity="0.8"/>
<circle cx="1419" cy="48" r="1.1" fill="white" opacity="0.4"/>
<circle cx="505" cy="252" r="1.7" fill="white" opacity="0.7"/>
<circle cx="195" cy="568" r="2.1" fill="white" opacity="0.4"/>
<circle cx="1215" cy="572" r="1.1" fill="white" opacity="0.6"/>
<circle cx="1285" cy="776" r="1.3" fill="white" opacity="0.4"/>
<circle cx="119" cy="708" r="0.5" fill="white" opacity="0.9"/>
<circle cx="1459" cy="104" r="0.5" fill="white" opacity="0.4"/>
<circle cx="337" cy="668" r="1.5" fill="white" opacity="0.7"/>
<circle cx="1131" cy="1048" r="2.1" fill="white" opacity="0.5"/>
<circle cx="1049" cy="644" r="2.1" fill="white" opacity="0.7"/>
<circle cx="675" cy="352" r="1.1" fill="white" opacity="0.3"/>
<circle cx="353" cy="860" r="0.9" fill="white" opacity="0.9"/>
<circle cx="219" cy="1072" r="0.7" fill="white" opacity="0.9"/>
<circle cx="681" cy="652" r="1.9" fill="white" opacity="0.6"/>
<circle cx="749" cy="520" r="1.9" fill="white" opacity="0.7"/>
<circle cx="1679" cy="924" r="1.3" fill="white" opacity="0.5"/>
<circle cx="203" cy="496" r="1.1" fill="white" opacity="0.4"/>
<circle cx="1479" cy="300" r="0.9" fill="white" opacity="0.5"/>
<circle cx="253" cy="480" r="1.1" fill="white" opacity="0.6"/>
<circle cx="1665" cy="260" r="1.7" fill="white" opacity="0.3"/>
<circle cx="1723" cy="696" r="1.1" fill="white" opacity="0.8"/>
<circle cx="1097" cy="716" r="2.1" fill="white" opacity="0.3"/>
<circle cx="13" cy="704" r="0.5" fill="white" opacity="0.6"/>
<circle cx="367" cy="68" r="1.5" fill="white" opacity="0.7"/>
<circle cx="981" cy="672" r="1.7" fill="white" opacity="0.3"/>
<circle cx="39" cy="860" r="1.1" fill="white" opacity="0.4"/>
<circle cx="355" cy="792" r="1.3" fill="white" opacity="0.4"/>
<circle cx="223" cy="484" r="0.7" fill="white" opacity="0.8"/>
<circle cx="1893" cy="328" r="1.1" fill="white" opacity="0.9"/>
<circle cx="1431" cy="724" r="2.1" fill="white" opacity="0.7"/>
<circle cx="429" cy="32" r="1.5" fill="white" opacity="0.9"/>
<circle cx="1487" cy="1052" r="1.7" fill="white" opacity="0.5"/>
<circle cx="267" cy="552" r="0.9" fill="white" opacity="0.5"/>
<circle cx="1273" cy="924" r="1.3" fill="white" opacity="0.4"/>
<circle cx="1091" cy="168" r="1.7" fill="white" opacity="0.4"/>
<circle cx="1471" cy="756" r="0.7" fill="white" opacity="0.9"/>
<circle cx="1915" cy="432" r="1.3" fill="white" opacity="0.4"/>
<circle cx="1143" cy="724" r="0.9" fill="white" opacity="0.9"/>
<circle cx="179" cy="120" r="1.3" fill="white" opacity="0.8"/>
<circle cx="1745" cy="396" r="1.1" fill="white" opacity="0.5"/>
<circle cx="747" cy="0" r="1.9" fill="white" opacity="0.3"/>
<circle cx="1767" cy="284" r="0.5" fill="white" opacity="0.7"/>
<circle cx="1571" cy="904" r="1.9" fill="white" opacity="0.5"/>
<circle cx="415" cy="404" r="1.5" fill="white" opacity="0.8"/>
<circle cx="1317" cy="912" r="0.9" fill="white" opacity="0.4"/>
<circle cx="681" cy="84" r="1.9" fill="white" opacity="0.7"/>
<circle cx="1773" cy="120" r="1.9" fill="white" opacity="0.5"/>
<circle cx="753" cy="180" r="1.3" fill="white" opacity="0.3"/>
<circle cx="1845" cy="512" r="0.9" fill="white" opacity="0.9"/>
<circle cx="199" cy="580" r="1.1" fill="white" opacity="0.9"/>
<circle cx="253" cy="832" r="1.9" fill="white" opacity="0.9"/>
<circle cx="1793" cy="796" r="0.9" fill="white" opacity="0.7"/>
<circle cx="197" cy="632" r="1.3" fill="white" opacity="0.6"/>
<circle cx="713" cy="740" r="1.7" fill="white" opacity="0.4"/>
<circle cx="909" cy="120" r="0.5" fill="white" opacity="0.8"/>
<circle cx="751" cy="500" r="0.7" fill="white" opacity="0.7"/>
<circle cx="1493" cy="64" r="1.7" fill="white" opacity="0.7"/>
<circle cx="1369" cy="28" r="1.9" fill="white" opacity="0.6"/>
<circle cx="1763" cy="80" r="1.7" fill="white" opacity="0.7"/>
<circle cx="1759" cy="676" r="1.7" fill="white" opacity="0.3"/>
<circle cx="27" cy="536" r="1.9" fill="white" opacity="0.7"/>
<circle cx="873" cy="500" r="1.1" fill="white" opacity="0.6"/>
<circle cx="211" cy="552" r="0.9" fill="white" opacity="0.7"/>
<circle cx="49" cy="724" r="1.9" fill="white" opacity="0.4"/>
<circle cx="11" cy="248" r="0.9" fill="white" opacity="0.8"/>
<circle cx="1543" cy="1004" r="2.1" fill="white" opacity="0.6"/>
<circle cx="1597" cy="176" r="2.1" fill="white" opacity="0.6"/>
<circle cx="833" cy="452" r="0.7" fill="white" opacity="0.5"/>
<circle cx="1403" cy="528" r="2.1" fill="white" opacity="0.3"/>
<circle cx="887" cy="556" r="0.5" fill="white" opacity="0.8"/>
<circle cx="717" cy="520" r="0.7" fill="white" opacity="0.8"/>
<circle cx="1873" cy="460" r="1.3" fill="white" opacity="0.4"/>
<circle cx="405" cy="512" r="1.1" fill="white" opacity="0.3"/>
<circle cx="25" cy="236" r="1.9" fill="white" opacity="0.6"/>
<circle cx="989" cy="168" r="1.7" fill="white" opacity="0.5"/>
<circle cx="1761" cy="628" r="0.7" fill="white" opacity="0.6"/>
<circle cx="1115" cy="568" r="1.7" fill="white" opacity="0.9"/>
<circle cx="297" cy="156" r="0.9" fill="white" opacity="0.6"/>
<circle cx="877" cy="744" r="1.7" fill="white" opacity="0.7"/>
<circle cx="1551" cy="436" r="1.5" fill="white" opacity="0.9"/>
<circle cx="587" cy="176" r="2.1" fill="white" opacity="0.5"/>
<circle cx="1479" cy="812" r="1.9" fill="white" opacity="0.3"/>
<circle cx="1021" cy="928" r="1.3" fill="white" opacity="0.9"/>
<circle cx="1" cy="588" r="1.1" fill="white" opacity="0.4"/>
<circle cx="827" cy="224" r="0.5" fill="white" opacity="0.6"/>
<circle cx="439" cy="124" r="1.3" fill="white" opacity="0.7"/>
<circle cx="1549" cy="216" r="0.7" fill="white" opacity="0.9"/>
<circle cx="111" cy="84" r="1.3" fill="white" opacity="0.6"/>
<circle cx="1493" cy="488" r="1.1" fill="white" opacity="0.5"/>
<circle cx="1753" cy="820" r="1.9" fill="white" opacity="0.7"/>
<circle cx="483" cy="528" r="1.9" fill="white" opacity="0.7"/>
<circle cx="801" cy="660" r="1.1" fill="white" opacity="0.3"/>
<circle cx="1765" cy="440" r="0.7" fill="white" opacity="0.8"/>
<circle cx="873" cy="116" r="1.1" fill="white" opacity="0.5"/>
<circle cx="1581" cy="664" r="1.7" fill="white" opacity="0.6"/>
<circle cx="1201" cy="1020" r="1.7" fill="white" opacity="0.9"/>
<circle cx="1547" cy="1040" r="2.1" fill="white" opacity="0.9"/>
<circle cx="121" cy="1052" r="1.3" fill="white" opacity="0.4"/>
<circle cx="61" cy="152" r="1.9" fill="white" opacity="0.3"/>
<circle cx="577" cy="332" r="0.5" fill="white" opacity="0.4"/>
<circle cx="1787" cy="152" r="1.1" fill="white" opacity="0.7"/>
<circle cx="1527" cy="796" r="1.5" fill="white" opacity="0.8"/>
<circle cx="1229" cy="616" r="1.9" fill="white" opacity="0.7"/>
<circle cx="687" cy="364" r="2.1" fill="white" opacity="0.3"/>
<circle cx="491" cy="336" r="0.9" fill="white" opacity="0.3"/>
<circle cx="1689" cy="604" r="1.5" fill="white" opacity="0.4"/>
<circle cx="1629" cy="336" r="1.5" fill="white" opacity="0.9"/>
<circle cx="671" cy="420" r="1.7" fill="white" opacity="0.3"/>
<circle cx="347" cy="944" r="2.1" fill="white" opacity="0.6"/>
<circle cx="471" cy="980" r="2.1" fill="white" opacity="0.9"/>
<circle cx="237" cy="224" r="1.9" fill="white" opacity="0.7"/>
<circle cx="1807" cy="660" r="0.9" fill="white" opacity="0.3"/>
<circle cx="53" cy="280" r="0.9" fill="white" opacity="0.3"/>
<circle cx="313" cy="796" r="0.9" fill="white" opacity="0.4"/>
<circle cx="1155" cy="80" r="1.3" fill="white" opacity="0.3"/>
<circle cx="1151" cy="764" r="0.5" fill="white" opacity="0.5"/>
<circle cx="955" cy="152" r="0.5" fill="white" opacity="0.9"/>
<circle cx="695" cy="324" r="1.5" fill="white" opacity="0.7"/>
<circle cx="1907" cy="392" r="1.3" fill="white" opacity="0.5"/>
<circle cx="401" cy="732" r="1.1" fill="white" opacity="0.7"/>
<circle cx="1835" cy="656" r="1.9" fill="white" opacity="0.7"/>
<circle cx="679" cy="764" r="1.7" fill="white" opacity="0.7"/>
<circle cx="29" cy="664" r="1.3" fill="white" opacity="0.7"/>
<circle cx="417" cy="892" r="0.5" fill="white" opacity="0.4"/>
<circle cx="1435" cy="680" r="1.9" fill="white" opacity="0.3"/>
<circle cx="233" cy="716" r="2.1" fill="white" opacity="0.5"/>
<circle cx="1709" cy="904" r="1.3" fill="white" opacity="0.6"/>
<circle cx="817" cy="900" r="0.5" fill="white" opacity="0.5"/>
<circle cx="1675" cy="824" r="1.1" fill="white" opacity="0.6"/>
<circle cx="1529" cy="612" r="0.9" fill="white" opacity="0.6"/>
<circle cx="701" cy="920" r="1.9" fill="white" opacity="0.8"/>
<circle cx="321" cy="52" r="1.3" fill="white" opacity="0.5"/>
<circle cx="261" cy="1024" r="0.9" fill="white" opacity="0.8"/>
<circle cx="777" cy="12" r="0.5" fill="white" opacity="0.4"/>
<circle cx="307" cy="992" r="1.9" fill="white" opacity="0.3"/>
<circle cx="849" cy="812" r="0.7" fill="white" opacity="0.4"/>
<circle cx="1899" cy="640" r="0.5" fill="white" opacity="0.9"/>
<circle cx="487" cy="108" r="0.5" fill="white" opacity="0.5"/>
<circle cx="1699" cy="0" r="1.9" fill="white" opacity="0.9"/>
<circle cx="543" cy="580" r="0.5" fill="white" opacity="0.7"/>
<circle cx="731" cy="952" r="2.1" fill="white" opacity="0.3"/>
<circle cx="41" cy="1068" r="1.9" fill="white" opacity="0.3"/>
<circle cx="1811" cy="1000" r="0.5" fill="white" opacity="0.9"/>
<circle cx="753" cy="84" r="1.5" fill="white" opacity="0.7"/>
<circle cx="693" cy="1024" r="1.9" fill="white" opacity="0.4"/>
<circle cx="953" cy="780" r="1.5" fill="white" opacity="0.8"/>
<circle cx="1789" cy="1000" r="0.7" fill="white" opacity="0.7"/>
<circle cx="767" cy="828" r="0.5" fill="white" opacity="0.5"/>
<circle cx="965" cy="1024" r="1.3" fill="white" opacity="0.8"/>
<circle cx="1865" cy="524" r="1.5" fill="white" opacity="0.9"/>
<circle cx="1267" cy="200" r="0.5" fill="white" opacity="0.8"/>
<circle cx="1297" cy="908" r="0.9" fill="white" opacity="0.3"/>
<circle cx="1195" cy="768" r="1.1" fill="white" opacity="0.9"/>
<circle cx="1881" cy="452" r="1.7" fill="white" opacity="0.4"/>
<circle cx="1565" cy="728" r="1.5" fill="white" opacity="0.5"/>
<circle cx="1569" cy="172" r="1.1" fill="white" opacity="0.8"/>
<circle cx="1637" cy="264" r="1.1" fill="white" opacity="0.9"/>
<circle cx="873" cy="860" r="2.1" fill="white" opacity="0.5"/>
<circle cx="685" cy="1056" r="1.7" fill="white" opacity="0.4"/>
<circle cx="591" cy="972" r="1.3" fill="white" opacity="0.8"/>
<circle cx="1035" cy="424" r="1.5" fill="white" opacity="0.5"/>
<circle cx="889" cy="132" r="0.9" fill="white" opacity="0.7"/>
<circle cx="1725" cy="1064" r="1.9" fill="white" opacity="0.4"/>
<circle cx="959" cy="812" r="0.5" fill="white" opacity="0.9"/>
<circle cx="379" cy="72" r="1.3" fill="white" opacity="0.4"/>
<circle cx="503" cy="404" r="1.3" fill="white" opacity="0.3"/>
<circle cx="717" cy="920" r="1.1" fill="white" opacity="0.8"/>
<circle cx="1233" cy="372" r="2.1" fill="white" opacity="0.7"/>
<circle cx="875" cy="1072" r="2.1" fill="white" opacity="0.9"/>
<circle cx="1049" cy="716" r="1.7" fill="white" opacity="0.6"/>
<circle cx="419" cy="592" r="0.7" fill="white" opacity="0.7"/>
<circle cx="609" cy="724" r="1.3" fill="white" opacity="0.7"/>
<circle cx="1371" cy="104" r="1.3" fill="white" opacity="0.4"/>
<circle cx="1577" cy="204" r="1.1" fill="white" opacity="0.4"/>
<circle cx="915" cy="40" r="1.9" fill="white" opacity="0.3"/>
<circle cx="1039" cy="212" r="1.9" fill="white" opacity="0.6"/>
<circle cx="1227" cy="1016" r="0.5" fill="white" opacity="0.4"/>
<circle cx="313" cy="364" r="1.7" fill="white" opacity="0.7"/>
<circle cx="1539" cy="864" r="1.1" fill="white" opacity="0.6"/>
  <ellipse cx="760" cy="490" rx="680" ry="420" fill="url(#neb)"/>
            <ellipse cx="1330" cy="640" rx="460" ry="300" fill="url(#neb2)"/>
            <text x="960" y="980" text-anchor="middle" font-family="monospace" font-size="18" fill="#7a5fa0" opacity="0.5" letter-spacing="8">ORION WATCH GALAXY REPORT</text>
</svg>