<?xml version="1.0" encoding="UTF-8"?>
<svg xmlns="http://www.w3.org/2000/svg" width="1920" height="1080" viewBox="0 0 1920 1080">
  <defs>
    
      <radialGradient id="bg" cx="50%" cy="50%" r="80%">
        <stop offset="0%" stop-color="#021520"/>
        <stop offset="100%" stop-color="#000508"/>
      </radialGradient>
      <radialGradient id="neb" cx="55%" cy="50%" r="45%">
        <stop offset="0%" stop-color="#0a3a50" stop-opacity="0.6"/>
        <stop offset="100%" stop-color="#0a3a50" stop-opacity="0"/>
      </radialGradient>
  </defs>
  <rect width="1920" height="1080" fill="url(#bg)"/>
  <circle cx="968" cy="15" r="2.0" fill="white" opacity="0.3"/>
<circle cx="388" cy="651" r="1.6" fill="white" opacity="0.3"/>
<circle cx="400" cy="671" r="1.8" fill="white" opacity="0.8"/>
<circle cx="1756" cy="3" r="1.2" fill="white" opacity="0.3"/>
<circle cx="1384" cy="455" r="1.6" fill="white" opacity="0.8"/>
<circle cx="820" cy="197" r="1.6" fill="white" opacity="0.5"/>
<circle cx="1472" cy="863" r="2.0" fill="white" opacity="0.6"/>
<circle cx="1164" cy="773" r="0.6" fill="white" opacity="0.3"/>
<circle cx="1432" cy="1047" r="1.8" fill="white" opacity="0.5"/>
<circle cx="1124" cy="699" r="1.4" fill="white" opacity="0.9"/>
<circle cx="1776" cy="897" r="1.6" fill="white" opacity="0.6"/>
<circle cx="572" cy="915" r="1.2" fill="white" opacity="0.4"/>
<circle cx="440" cy="1025" r="0.4" fill="white" opacity="0.4"/>
<circle cx="1684" cy="797" r="1.2" fill="white" opacity="0.3"/>
<circle cx="1824" cy="465" r="0.6" fill="white" opacity="0.8"/>
<circle cx="236" cy="981" r="1.4" fill="white" opacity="0.7"/>
<circle cx="392" cy="1001" r="0.6" fill="white" opacity="0.4"/>
<circle cx="836" cy="829" r="2.0" fill="white" opacity="0.8"/>
<circle cx="944" cy="1049" r="2.0" fill="white" opacity="0.4"/>
<circle cx="1820" cy="379" r="1.2" fill="white" opacity="0.3"/>
<circle cx="1576" cy="825" r="0.4" fill="white" opacity="0.4"/>
<circle cx="1164" cy="339" r="1.8" fill="white" opacity="0.8"/>
<circle cx="1536" cy="961" r="1.0" fill="white" opacity="0.4"/>
<circle cx="332" cy="661" r="1.4" fill="white" opacity="0.6"/>
<circle cx="1752" cy="175" r="0.8" fill="white" opacity="0.7"/>
<circle cx="988" cy="533" r="1.2" fill="white" opacity="0.7"/>
<circle cx="1328" cy="641" r="0.8" fill="white" opacity="0.4"/>
<circle cx="772" cy="1053" r="0.4" fill="white" opacity="0.9"/>
<circle cx="1528" cy="809" r="1.4" fill="white" opacity="0.8"/>
<circle cx="980" cy="123" r="1.2" fill="white" opacity="0.4"/>
<circle cx="1376" cy="31" r="0.4" fill="white" opacity="0.9"/>
<circle cx="1196" cy="843" r="0.4" fill="white" opacity="0.7"/>
<circle cx="696" cy="905" r="1.0" fill="white" opacity="0.6"/>
<circle cx="1916" cy="973" r="0.6" fill="white" opacity="0.4"/>
<circle cx="1392" cy="1031" r="2.0" fill="white" opacity="0.6"/>
<circle cx="860" cy="851" r="0.8" fill="white" opacity="0.6"/>
<circle cx="1640" cy="647" r="0.4" fill="white" opacity="0.5"/>
<circle cx="460" cy="1075" r="0.8" fill="white" opacity="0.5"/>
<circle cx="448" cy="825" r="1.6" fill="white" opacity="0.9"/>
<circle cx="628" cy="925" r="1.0" fill="white" opacity="0.4"/>
<circle cx="1432" cy="1015" r="1.6" fill="white" opacity="0.9"/>
<circle cx="740" cy="747" r="2.0" fill="white" opacity="0.8"/>
<circle cx="784" cy="865" r="0.4" fill="white" opacity="0.9"/>
<circle cx="1468" cy="891" r="1.8" fill="white" opacity="0.4"/>
<circle cx="1864" cy="479" r="1.0" fill="white" opacity="0.4"/>
<circle cx="1172" cy="245" r="0.4" fill="white" opacity="0.3"/>
<circle cx="1696" cy="399" r="1.2" fill="white" opacity="0.7"/>
<circle cx="1900" cy="261" r="1.8" fill="white" opacity="0.7"/>
<circle cx="1288" cy="335" r="0.6" fill="white" opacity="0.9"/>
<circle cx="1596" cy="635" r="1.0" fill="white" opacity="0.4"/>
<circle cx="1104" cy="657" r="0.6" fill="white" opacity="0.8"/>
<circle cx="540" cy="445" r="0.4" fill="white" opacity="0.7"/>
<circle cx="1576" cy="807" r="1.0" fill="white" opacity="0.6"/>
<circle cx="244" cy="1053" r="0.6" fill="white" opacity="0.9"/>
<circle cx="128" cy="247" r="1.2" fill="white" opacity="0.5"/>
<circle cx="588" cy="803" r="2.0" fill="white" opacity="0.8"/>
<circle cx="1064" cy="585" r="1.4" fill="white" opacity="0.4"/>
<circle cx="604" cy="925" r="0.8" fill="white" opacity="0.8"/>
<circle cx="464" cy="559" r="1.8" fill="white" opacity="0.3"/>
<circle cx="124" cy="699" r="1.8" fill="white" opacity="0.7"/>
<circle cx="1016" cy="473" r="1.4" fill="white" opacity="0.6"/>
<circle cx="1324" cy="875" r="1.2" fill="white" opacity="0.8"/>
<circle cx="1760" cy="831" r="2.0" fill="white" opacity="0.6"/>
<circle cx="84" cy="93" r="1.4" fill="white" opacity="0.7"/>
<circle cx="1736" cy="217" r="0.6" fill="white" opacity="0.9"/>
<circle cx="1148" cy="101" r="1.2" fill="white" opacity="0.5"/>
<circle cx="144" cy="1073" r="2.0" fill="white" opacity="0.9"/>
<circle cx="1244" cy="477" r="1.6" fill="white" opacity="0.3"/>
<circle cx="104" cy="129" r="1.8" fill="white" opacity="0.5"/>
<circle cx="1356" cy="723" r="1.6" fill="white" opacity="0.4"/>
<circle cx="832" cy="193" r="1.6" fill="white" opacity="0.3"/>
<circle cx="756" cy="219" r="0.8" fill="white" opacity="0.3"/>
<circle cx="152" cy="439" r="0.6" fill="white" opacity="0.3"/>
<circle cx="356" cy="101" r="1.8" fill="white" opacity="0.8"/>
<circle cx="1264" cy="601" r="0.8" fill="white" opacity="0.7"/>
<circle cx="708" cy="1075" r="2.0" fill="white" opacity="0.5"/>
<circle cx="1720" cy="385" r="0.4" fill="white" opacity="0.6"/>
<circle cx="1172" cy="101" r="1.2" fill="white" opacity="0.7"/>
<circle cx="928" cy="217" r="0.8" fill="white" opacity="0.7"/>
<circle cx="492" cy="509" r="0.4" fill="white" opacity="0.6"/>
<circle cx="8" cy="15" r="2.0" fill="white" opacity="0.4"/>
<circle cx="188" cy="221" r="2.0" fill="white" opacity="0.7"/>
<circle cx="176" cy="305" r="1.6" fill="white" opacity="0.5"/>
<circle cx="1252" cy="819" r="1.6" fill="white" opacity="0.9"/>
<circle cx="936" cy="175" r="1.0" fill="white" opacity="0.8"/>
<circle cx="1780" cy="749" r="1.6" fill="white" opacity="0.6"/>
<circle cx="384" cy="625" r="0.4" fill="white" opacity="0.8"/>
<circle cx="52" cy="77" r="1.4" fill="white" opacity="0.8"/>
<circle cx="1240" cy="449" r="2.0" fill="white" opacity="0.9"/>
<circle cx="1244" cy="915" r="1.6" fill="white" opacity="0.6"/>
<circle cx="176" cy="289" r="0.6" fill="white" opacity="0.5"/>
<circle cx="380" cy="59" r="0.4" fill="white" opacity="0.3"/>
<circle cx="904" cy="439" r="0.8" fill="white" opacity="0.9"/>
<circle cx="1068" cy="915" r="0.8" fill="white" opacity="0.4"/>
<circle cx="224" cy="1071" r="1.6" fill="white" opacity="0.3"/>
<circle cx="852" cy="933" r="0.4" fill="white" opacity="0.3"/>
<circle cx="1736" cy="593" r="1.0" fill="white" opacity="0.9"/>
<circle cx="644" cy="883" r="1.0" fill="white" opacity="0.6"/>
<circle cx="144" cy="903" r="2.0" fill="white" opacity="0.9"/>
<circle cx="420" cy="541" r="1.0" fill="white" opacity="0.3"/>
<circle cx="1176" cy="1073" r="1.6" fill="white" opacity="0.8"/>
<circle cx="1716" cy="629" r="1.2" fill="white" opacity="0.3"/>
<circle cx="960" cy="953" r="1.8" fill="white" opacity="0.3"/>
<circle cx="244" cy="315" r="1.6" fill="white" opacity="0.9"/>
<circle cx="232" cy="503" r="1.2" fill="white" opacity="0.6"/>
<circle cx="1764" cy="989" r="0.4" fill="white" opacity="0.3"/>
<circle cx="784" cy="193" r="0.6" fill="white" opacity="0.7"/>
<circle cx="1084" cy="29" r="0.8" fill="white" opacity="0.8"/>
<circle cx="1224" cy="41" r="0.4" fill="white" opacity="0.7"/>
<circle cx="1684" cy="723" r="1.6" fill="white" opacity="0.9"/>
<circle cx="1120" cy="143" r="1.0" fill="white" opacity="0.4"/>
<circle cx="1172" cy="867" r="0.6" fill="white" opacity="0.3"/>
<circle cx="120" cy="313" r="1.8" fill="white" opacity="0.8"/>
<circle cx="1348" cy="845" r="1.4" fill="white" opacity="0.8"/>
<circle cx="976" cy="535" r="1.4" fill="white" opacity="0.9"/>
<circle cx="1564" cy="827" r="2.0" fill="white" opacity="0.4"/>
<circle cx="1704" cy="689" r="0.8" fill="white" opacity="0.6"/>
<circle cx="1268" cy="901" r="1.6" fill="white" opacity="0.4"/>
<circle cx="1792" cy="575" r="0.8" fill="white" opacity="0.9"/>
<circle cx="692" cy="987" r="1.2" fill="white" opacity="0.6"/>
<circle cx="1448" cy="687" r="1.2" fill="white" opacity="0.3"/>
<circle cx="1116" cy="789" r="1.6" fill="white" opacity="0.8"/>
<circle cx="304" cy="497" r="0.8" fill="white" opacity="0.8"/>
<circle cx="764" cy="931" r="0.8" fill="white" opacity="0.7"/>
<circle cx="1656" cy="49" r="1.6" fill="white" opacity="0.8"/>
<circle cx="428" cy="829" r="0.6" fill="white" opacity="0.5"/>
<circle cx="1888" cy="649" r="0.6" fill="white" opacity="0.5"/>
<circle cx="1452" cy="299" r="0.8" fill="white" opacity="0.9"/>
<circle cx="1208" cy="385" r="0.6" fill="white" opacity="0.3"/>
<circle cx="1156" cy="987" r="0.8" fill="white" opacity="0.8"/>
<circle cx="16" cy="855" r="1.6" fill="white" opacity="0.5"/>
<circle cx="932" cy="373" r="1.0" fill="white" opacity="0.4"/>
<circle cx="360" cy="153" r="2.0" fill="white" opacity="0.6"/>
<circle cx="564" cy="349" r="1.4" fill="white" opacity="0.3"/>
<circle cx="448" cy="431" r="1.6" fill="white" opacity="0.9"/>
<circle cx="1804" cy="875" r="0.4" fill="white" opacity="0.3"/>
<circle cx="1048" cy="695" r="1.8" fill="white" opacity="0.9"/>
<circle cx="924" cy="133" r="0.6" fill="white" opacity="0.8"/>
<circle cx="1680" cy="271" r="0.8" fill="white" opacity="0.9"/>
<circle cx="580" cy="61" r="0.8" fill="white" opacity="0.5"/>
<circle cx="1208" cy="303" r="2.0" fill="white" opacity="0.6"/>
<circle cx="532" cy="77" r="0.6" fill="white" opacity="0.6"/>
<circle cx="1248" cy="73" r="1.6" fill="white" opacity="0.8"/>
<circle cx="1900" cy="907" r="2.0" fill="white" opacity="0.6"/>
<circle cx="1160" cy="545" r="1.6" fill="white" opacity="0.3"/>
<circle cx="452" cy="547" r="0.6" fill="white" opacity="0.8"/>
<circle cx="1616" cy="1001" r="0.6" fill="white" opacity="0.9"/>
<circle cx="1820" cy="221" r="0.8" fill="white" opacity="0.9"/>
<circle cx="424" cy="711" r="1.2" fill="white" opacity="0.8"/>
<circle cx="628" cy="43" r="0.6" fill="white" opacity="0.7"/>
<circle cx="0" cy="481" r="1.0" fill="white" opacity="0.5"/>
<circle cx="436" cy="1035" r="1.0" fill="white" opacity="0.7"/>
<circle cx="1496" cy="1079" r="1.8" fill="white" opacity="0.7"/>
<circle cx="348" cy="861" r="1.6" fill="white" opacity="0.7"/>
<circle cx="1328" cy="463" r="2.0" fill="white" opacity="0.4"/>
<circle cx="380" cy="957" r="1.8" fill="white" opacity="0.6"/>
<circle cx="1800" cy="711" r="1.0" fill="white" opacity="0.4"/>
<circle cx="596" cy="1051" r="0.4" fill="white" opacity="0.5"/>
<circle cx="352" cy="751" r="1.6" fill="white" opacity="0.5"/>
<circle cx="44" cy="643" r="0.6" fill="white" opacity="0.4"/>
<circle cx="840" cy="511" r="0.6" fill="white" opacity="0.5"/>
<circle cx="260" cy="603" r="1.2" fill="white" opacity="0.5"/>
<circle cx="1168" cy="841" r="2.0" fill="white" opacity="0.5"/>
<circle cx="1700" cy="389" r="0.4" fill="white" opacity="0.9"/>
<circle cx="1176" cy="425" r="2.0" fill="white" opacity="0.7"/>
<circle cx="1204" cy="589" r="0.6" fill="white" opacity="0.8"/>
<circle cx="1600" cy="369" r="1.2" fill="white" opacity="0.4"/>
<circle cx="268" cy="635" r="0.4" fill="white" opacity="0.4"/>
<circle cx="1816" cy="577" r="0.4" fill="white" opacity="0.6"/>
<circle cx="1764" cy="533" r="2.0" fill="white" opacity="0.5"/>
<circle cx="16" cy="993" r="1.8" fill="white" opacity="0.3"/>
<circle cx="580" cy="53" r="2.0" fill="white" opacity="0.8"/>
<circle cx="440" cy="831" r="1.4" fill="white" opacity="0.9"/>
<circle cx="1556" cy="181" r="1.6" fill="white" opacity="0.3"/>
<circle cx="160" cy="511" r="2.0" fill="white" opacity="0.6"/>
<circle cx="492" cy="43" r="2.0" fill="white" opacity="0.5"/>
<circle cx="904" cy="503" r="1.0" fill="white" opacity="0.3"/>
<circle cx="1084" cy="125" r="0.8" fill="white" opacity="0.9"/>
<circle cx="944" cy="1015" r="0.6" fill="white" opacity="0.3"/>
<circle cx="284" cy="35" r="2.0" fill="white" opacity="0.4"/>
<circle cx="1320" cy="841" r="0.6" fill="white" opacity="0.3"/>
<circle cx="652" cy="395" r="1.0" fill="white" opacity="0.7"/>
<circle cx="896" cy="257" r="2.0" fill="white" opacity="0.6"/>
<circle cx="308" cy="117" r="1.0" fill="white" opacity="0.8"/>
<circle cx="1704" cy="367" r="0.8" fill="white" opacity="0.7"/>
<circle cx="988" cy="141" r="1.4" fill="white" opacity="0.5"/>
<circle cx="1360" cy="191" r="1.2" fill="white" opacity="0.5"/>
<circle cx="1916" cy="5" r="1.6" fill="white" opacity="0.5"/>
<circle cx="632" cy="953" r="2.0" fill="white" opacity="0.8"/>
<circle cx="428" cy="547" r="1.0" fill="white" opacity="0.5"/>
<circle cx="1184" cy="601" r="1.8" fill="white" opacity="0.4"/>
<circle cx="1324" cy="549" r="1.8" fill="white" opacity="0.9"/>
<circle cx="1352" cy="967" r="1.4" fill="white" opacity="0.6"/>
<circle cx="252" cy="435" r="1.6" fill="white" opacity="0.9"/>
<circle cx="912" cy="199" r="0.4" fill="white" opacity="0.6"/>
<circle cx="220" cy="1005" r="1.4" fill="white" opacity="0.4"/>
<circle cx="1304" cy="937" r="1.8" fill="white" opacity="0.8"/>
<circle cx="716" cy="261" r="2.0" fill="white" opacity="0.5"/>
<circle cx="1728" cy="281" r="1.2" fill="white" opacity="0.6"/>
<circle cx="1548" cy="589" r="0.6" fill="white" opacity="0.3"/>
<circle cx="664" cy="1049" r="0.4" fill="white" opacity="0.8"/>
<circle cx="100" cy="253" r="0.6" fill="white" opacity="0.7"/>
<circle cx="1776" cy="399" r="0.4" fill="white" opacity="0.3"/>
<circle cx="324" cy="421" r="0.6" fill="white" opacity="0.8"/>
<circle cx="1736" cy="799" r="0.6" fill="white" opacity="0.4"/>
<circle cx="1516" cy="813" r="0.8" fill="white" opacity="0.4"/>
<circle cx="1888" cy="343" r="1.0" fill="white" opacity="0.5"/>
<circle cx="660" cy="867" r="0.8" fill="white" opacity="0.3"/>
<circle cx="888" cy="1073" r="2.0" fill="white" opacity="0.7"/>
<circle cx="964" cy="155" r="0.4" fill="white" opacity="0.5"/>
<circle cx="976" cy="479" r="1.6" fill="white" opacity="0.5"/>
<circle cx="1820" cy="1027" r="0.6" fill="white" opacity="0.9"/>
<circle cx="1240" cy="537" r="0.8" fill="white" opacity="0.7"/>
<circle cx="1780" cy="779" r="0.8" fill="white" opacity="0.5"/>
<circle cx="1024" cy="927" r="0.8" fill="white" opacity="0.7"/>
<circle cx="332" cy="341" r="0.8" fill="white" opacity="0.4"/>
<circle cx="680" cy="417" r="0.4" fill="white" opacity="0.6"/>
<circle cx="676" cy="549" r="0.8" fill="white" opacity="0.3"/>
<circle cx="592" cy="295" r="0.6" fill="white" opacity="0.4"/>
<circle cx="1796" cy="131" r="1.6" fill="white" opacity="0.7"/>
<circle cx="1800" cy="233" r="2.0" fill="white" opacity="0.6"/>
<circle cx="596" cy="907" r="1.2" fill="white" opacity="0.6"/>
<circle cx="736" cy="89" r="1.2" fill="white" opacity="0.3"/>
<circle cx="1492" cy="1011" r="1.8" fill="white" opacity="0.3"/>
<circle cx="1848" cy="7" r="0.4" fill="white" opacity="0.4"/>
<circle cx="1668" cy="357" r="0.6" fill="white" opacity="0.6"/>
<circle cx="1520" cy="31" r="1.4" fill="white" opacity="0.4"/>
<circle cx="420" cy="603" r="1.4" fill="white" opacity="0.7"/>
<circle cx="1560" cy="807" r="1.2" fill="white" opacity="0.9"/>
<circle cx="1100" cy="27" r="1.4" fill="white" opacity="0.8"/>
<circle cx="1344" cy="857" r="0.6" fill="white" opacity="0.6"/>
<circle cx="1036" cy="411" r="0.6" fill="white" opacity="0.7"/>
<circle cx="24" cy="927" r="1.6" fill="white" opacity="0.5"/>
<circle cx="540" cy="947" r="0.6" fill="white" opacity="0.6"/>
<circle cx="752" cy="967" r="1.6" fill="white" opacity="0.3"/>
<circle cx="708" cy="501" r="0.4" fill="white" opacity="0.7"/>
<circle cx="1864" cy="79" r="1.6" fill="white" opacity="0.8"/>
<circle cx="1428" cy="885" r="1.6" fill="white" opacity="0.7"/>
<circle cx="1760" cy="897" r="0.8" fill="white" opacity="0.9"/>
<circle cx="1516" cy="661" r="1.6" fill="white" opacity="0.4"/>
<circle cx="1288" cy="847" r="2.0" fill="white" opacity="0.4"/>
<circle cx="196" cy="1011" r="1.8" fill="white" opacity="0.6"/>
<circle cx="336" cy="79" r="0.8" fill="white" opacity="0.5"/>
<circle cx="740" cy="795" r="1.0" fill="white" opacity="0.3"/>
<circle cx="856" cy="263" r="0.6" fill="white" opacity="0.5"/>
<circle cx="524" cy="1051" r="1.2" fill="white" opacity="0.8"/>
<circle cx="640" cy="439" r="2.0" fill="white" opacity="0.6"/>
<circle cx="204" cy="179" r="1.2" fill="white" opacity="0.7"/>
<circle cx="984" cy="89" r="0.8" fill="white" opacity="0.7"/>
<circle cx="420" cy="931" r="0.6" fill="white" opacity="0.3"/>
<circle cx="720" cy="1009" r="2.0" fill="white" opacity="0.6"/>
<circle cx="1796" cy="37" r="2.0" fill="white" opacity="0.9"/>
<circle cx="888" cy="1047" r="0.6" fill="white" opacity="0.7"/>
<circle cx="684" cy="443" r="1.2" fill="white" opacity="0.8"/>
<circle cx="1376" cy="809" r="1.8" fill="white" opacity="0.5"/>
<circle cx="1748" cy="667" r="1.6" fill="white" opacity="0.3"/>
<circle cx="1336" cy="359" r="2.0" fill="white" opacity="0.7"/>
<circle cx="380" cy="917" r="0.8" fill="white" opacity="0.9"/>
<circle cx="1552" cy="969" r="1.0" fill="white" opacity="0.4"/>
<circle cx="676" cy="917" r="1.4" fill="white" opacity="0.5"/>
<circle cx="104" cy="409" r="1.6" fill="white" opacity="0.9"/>
<circle cx="1716" cy="333" r="0.8" fill="white" opacity="0.7"/>
<circle cx="960" cy="257" r="1.2" fill="white" opacity="0.5"/>
<circle cx="1292" cy="1021" r="0.4" fill="white" opacity="0.4"/>
<circle cx="104" cy="519" r="0.6" fill="white" opacity="0.9"/>
<circle cx="28" cy="531" r="1.6" fill="white" opacity="0.5"/>
<circle cx="240" cy="159" r="1.2" fill="white" opacity="0.6"/>
<circle cx="956" cy="371" r="0.6" fill="white" opacity="0.3"/>
<circle cx="1848" cy="1015" r="2.0" fill="white" opacity="0.4"/>
<circle cx="20" cy="389" r="0.4" fill="white" opacity="0.6"/>
<circle cx="352" cy="327" r="1.4" fill="white" opacity="0.9"/>
<circle cx="1644" cy="827" r="1.4" fill="white" opacity="0.8"/>
<circle cx="1160" cy="351" r="0.6" fill="white" opacity="0.8"/>
<circle cx="1596" cy="59" r="1.6" fill="white" opacity="0.8"/>
<circle cx="720" cy="191" r="0.4" fill="white" opacity="0.7"/>
<circle cx="612" cy="613" r="0.6" fill="white" opacity="0.4"/>
<circle cx="936" cy="417" r="1.2" fill="white" opacity="0.6"/>
<circle cx="372" cy="755" r="1.4" fill="white" opacity="0.7"/>
<circle cx="1536" cy="961" r="1.8" fill="white" opacity="0.9"/>
<circle cx="460" cy="437" r="1.6" fill="white" opacity="0.5"/>
  <ellipse cx="960" cy="540" rx="600" ry="380" fill="url(#neb)"/>
            <line x1="0" y1="0" x2="0" y2="1080" stroke="#0e4460" stroke-width="0.5" opacity="0.4"/><line x1="192" y1="0" x2="192" y2="1080" stroke="#0e4460" stroke-width="0.5" opacity="0.4"/><line x1="384" y1="0" x2="384" y2="1080" stroke="#0e4460" stroke-width="0.5" opacity="0.4"/><line x1="576" y1="0" x2="576" y2="1080" stroke="#0e4460" stroke-width="0.5" opacity="0.4"/><line x1="768" y1="0" x2="768" y2="1080" stroke="#0e4460" stroke-width="0.5" opacity="0.4"/><line x1="960" y1="0" x2="960" y2="1080" stroke="#0e4460" stroke-width="0.5" opacity="0.4"/><line x1="1152" y1="0" x2="1152" y2="1080" stroke="#0e4460" stroke-width="0.5" opacity="0.4"/><line x1="1344" y1="0" x2="1344" y2="1080" stroke="#0e4460" stroke-width="0.5" opacity="0.4"/><line x1="1536" y1="0" x2="1536" y2="1080" stroke="#0e4460" stroke-width="0.5" opacity="0.4"/><line x1="1728" y1="0" x2="1728" y2="1080" stroke="#0e4460" stroke-width="0.5" opacity="0.4"/><line x1="1920" y1="0" x2="1920" y2="1080" stroke="#0e4460" stroke-width="0.5" opacity="0.4"/>
            <line x1="0" y1="0" x2="1920" y2="0" stroke="#0e4460" stroke-width="0.5" opacity="0.4"/><line x1="0" y1="180" x2="1920" y2="180" stroke="#0e4460" stroke-width="0.5" opacity="0.4"/><line x1="0" y1="360" x2="1920" y2="360" stroke="#0e4460" stroke-width="0.5" opacity="0.4"/><line x1="0" y1="540" x2="1920" y2="540" stroke="#0e4460" stroke-width="0.5" opacity="0.4"/><line x1="0" y1="720" x2="1920" y2="720" stroke="#0e4460" stroke-width="0.5" opacity="0.4"/><line x1="0" y1="900" x2="1920" y2="900" stroke="#0e4460" stroke-width="0.5" opacity="0.4"/><line x1="0" y1="1080" x2="1920" y2="1080" stroke="#0e4460" stroke-width="0.5" opacity="0.4"/>
            <circle cx="960" cy="540" r="38" fill="#ffe090" opacity="0.18"/>
            <circle cx="960" cy="540" r="16" fill="#ffd060" opacity="0.55"/>
            <circle cx="960" cy="540" r="6" fill="#fff8e0"/>
            <circle cx="960" cy="540" r="120" fill="none" stroke="#1a6080" stroke-width="0.8" opacity="0.5" stroke-dasharray="4 6"/>
            <circle cx="960" cy="540" r="220" fill="none" stroke="#1a6080" stroke-width="0.8" opacity="0.35" stroke-dasharray="4 8"/>
            <text x="960" y="980" text-anchor="middle" font-family="monospace" font-size="18" fill="#1a8090" opacity="0.5" letter-spacing="8">HAVEN SYSTEM — NEBULA COLLECTIVE</text>
</svg>